<?xml version="1.0" encoding="UTF-8" standalone="no"?>
<!-- Generator: Adobe Illustrator 19.1.0, SVG Export Plug-In . SVG Version: 6.00 Build 0)  -->

<svg
   version="1.1"
   id="Layer_1"
   x="0px"
   y="0px"
   viewBox="0 0 26.66666 26.66666"
   xml:space="preserve"
   sodipodi:docname="ORCID_iD.svg"
   width="26.66666"
   height="26.66666"
   inkscape:version="1.4.2 (1:1.4.2+202505120738+ebf0e940d0)"
   xmlns:inkscape="http://www.inkscape.org/namespaces/inkscape"
   xmlns:sodipodi="http://sodipodi.sourceforge.net/DTD/sodipodi-0.dtd"
   xmlns="http://www.w3.org/2000/svg"
   xmlns:svg="http://www.w3.org/2000/svg"><defs
   id="defs4" /><sodipodi:namedview
   id="namedview4"
   pagecolor="#ffffff"
   bordercolor="#666666"
   borderopacity="1.0"
   inkscape:showpageshadow="2"
   inkscape:pageopacity="0.0"
   inkscape:pagecheckerboard="0"
   inkscape:deskcolor="#d1d1d1"
   inkscape:zoom="3.1679688"
   inkscape:cx="-107.79778"
   inkscape:cy="-107.79778"
   inkscape:window-width="1850"
   inkscape:window-height="1016"
   inkscape:window-x="0"
   inkscape:window-y="0"
   inkscape:window-maximized="1"
   inkscape:current-layer="Layer_1" />
<style
   type="text/css"
   id="style1">
	.st0{fill:#A6CE39;}
	.st1{fill:#FFFFFF;}
</style>
<path
   class="st0"
   d="m 26.66666,13.33333 c 0,7.36458 -5.96875,13.33333 -13.33333,13.33333 C 5.96875,26.66666 0,20.69791 0,13.33333 0,5.96875 5.96875,0 13.33333,0 20.69791,0 26.66666,5.96875 26.66666,13.33333 Z"
   id="path1"
   style="stroke-width:0.104167" />
<g
   id="g4"
   transform="scale(0.10416667)">
	<path
   class="st1"
   d="M 86.3,186.2 H 70.9 V 79.1 h 15.4 v 48.4 z"
   id="path2" />
	<path
   class="st1"
   d="m 108.9,79.1 h 41.6 c 39.6,0 57,28.3 57,53.6 0,27.5 -21.5,53.6 -56.8,53.6 h -41.8 z m 15.4,93.3 h 24.5 c 34.9,0 42.9,-26.5 42.9,-39.7 C 191.7,111.2 178,93 148,93 h -23.7 z"
   id="path3" />
	<path
   class="st1"
   d="m 88.7,56.8 c 0,5.5 -4.5,10.1 -10.1,10.1 -5.6,0 -10.1,-4.6 -10.1,-10.1 0,-5.6 4.5,-10.1 10.1,-10.1 5.6,0 10.1,4.6 10.1,10.1 z"
   id="path4" />
</g>
</svg>
